<svg width="59" height="58" viewBox="0 0 59 58" fill="none" xmlns="http://www.w3.org/2000/svg">
<path d="M52.6204 23.4337H35.3744V6.20606C35.3718 4.68471 34.765 3.22656 33.6872 2.1517C32.6094 1.07685 31.1486 0.473145 29.6256 0.473145C28.1026 0.473145 26.6419 1.07685 25.564 2.1517C24.4862 3.22656 23.8794 4.68471 23.8769 6.20606V23.4337H6.63065C5.10768 23.4362 3.64792 24.0424 2.57192 25.1191C1.49592 26.1957 0.891602 27.6549 0.891602 29.1762C0.891602 30.6975 1.49592 32.1567 2.57192 33.2333C3.64792 34.31 5.10768 34.9161 6.63065 34.9187H23.8769V52.1463C23.8794 53.6677 24.4862 55.1259 25.564 56.2007C26.6419 57.2756 28.1026 57.8792 29.6256 57.8792C31.1486 57.8792 32.6094 57.2756 33.6872 56.2007C34.765 55.1259 35.3718 53.6677 35.3744 52.1463V34.9187H52.6204C53.3758 34.9205 54.1241 34.7735 54.8226 34.4862C55.5211 34.1989 56.1561 33.7769 56.6912 33.2444C57.2263 32.7118 57.6512 32.0791 57.9414 31.3824C58.2316 30.6857 58.3815 29.9388 58.3826 29.1842C58.3836 28.4296 58.2358 27.6822 57.9475 26.9847C57.6593 26.2873 57.2362 25.6534 56.7025 25.1193C56.1689 24.5853 55.5351 24.1615 54.8374 23.8723C54.1397 23.5831 53.3918 23.434 52.6364 23.4337H52.6204Z" fill="#F4F4F4"/>
</svg>
