<svg width="84" height="17" viewBox="0 0 84 17" fill="none" xmlns="http://www.w3.org/2000/svg">
<path d="M8.93488 16.6092C13.3682 16.6092 16.962 13.0192 16.962 8.59064C16.962 4.16213 13.3682 0.572113 8.93488 0.572113C4.5016 0.572113 0.907715 4.16213 0.907715 8.59064C0.907715 13.0192 4.5016 16.6092 8.93488 16.6092Z" fill="#E6E6E6"/>
<path d="M42.3814 16.6092C46.8147 16.6092 50.4086 13.0192 50.4086 8.59064C50.4086 4.16213 46.8147 0.572113 42.3814 0.572113C37.9481 0.572113 34.3542 4.16213 34.3542 8.59064C34.3542 13.0192 37.9481 16.6092 42.3814 16.6092Z" fill="#E6E6E6"/>
<path d="M75.8279 16.6092C80.2612 16.6092 83.8551 13.0192 83.8551 8.59064C83.8551 4.16213 80.2612 0.572113 75.8279 0.572113C71.3947 0.572113 67.8008 4.16213 67.8008 8.59064C67.8008 13.0192 71.3947 16.6092 75.8279 16.6092Z" fill="#E6E6E6"/>
</svg>
